<?xml version="1.0" encoding="UTF-8"?>
<svg id="Layer_1" data-name="Layer 1" xmlns="http://www.w3.org/2000/svg" viewBox="0 0 405.83 132.94">
  <defs>
    <style>
      .cls-1 {
        fill: #179b71;
      }
    </style>
  </defs>
  <path class="cls-1" d="M115.1,117.14h-44.58c-2.02,0-3.65-1.63-3.65-3.65v-8.26c0-2.02,1.63-3.65,3.65-3.65h33.75c2.02,0,3.65-1.63,3.65-3.65v-7.36c0-2.02-1.63-3.65-3.65-3.65h-23.48c-2.02,0-3.65-1.63-3.65-3.65v-.24c0-2.02-1.63-3.65-3.65-3.65h-2.96c-2.02,0-3.65-1.63-3.65-3.65v-23.29c0-2.02,1.63-3.65,3.65-3.65h2.96c2.02,0,3.65-1.63,3.65-3.65v-.24c0-2.02,1.63-3.65,3.65-3.65h44.58c2.02,0,3.65,1.63,3.65,3.65v8.21c0,2.02-1.63,3.65-3.65,3.65h-33.74c-2.02,0-3.65,1.63-3.65,3.65v7.36c0,2.02,1.63,3.65,3.65,3.65h23.48c2.02,0,3.65,1.63,3.65,3.65v.24c0,2.02,1.63,3.65,3.65,3.65h2.96c2.02,0,3.65,1.63,3.65,3.65v23.29c0,2.02-1.63,3.65-3.65,3.65h-2.96c-2.02,0-3.65,1.63-3.65,3.65v.3c0,2.02-1.63,3.65-3.65,3.65Z"/>
  <path class="cls-1" d="M158.28,101.57h2.32c2.03,0,3.68-1.65,3.68-3.68V44.92c0-2.03,1.65-3.68,3.68-3.68h13.74c2.03,0,3.68,1.65,3.68,3.68v52.98c0,2.03,1.65,3.68,3.68,3.68h2.32c2.03,0,3.68-1.65,3.68-3.68V44.92c0-2.03,1.65-3.68,3.68-3.68h13.74c2.03,0,3.68,1.65,3.68,3.68v60.94c0,2.03-1.65,3.68-3.68,3.68h-2.9c-2.03,0-3.68,1.65-3.68,3.68v.24c0,2.03-1.65,3.68-3.68,3.68h-54.78c-2.03,0-3.68-1.65-3.68-3.68v-.24c0-2.03-1.65-3.68-3.68-3.68h-2.9c-2.03,0-3.68-1.65-3.68-3.68V44.92c0-2.03,1.65-3.68,3.68-3.68h13.74c2.03,0,3.68,1.65,3.68,3.68v52.98c0,2.03,1.65,3.68,3.68,3.68Z"/>
  <path class="cls-1" d="M237.2,117.18h-11.96c-2.52,0-4.57-2.05-4.57-4.57V45.85c0-2.52,2.05-4.57,4.57-4.57h53.01c2.52,0,4.57,2.05,4.57,4.57V112.61c0,2.52-2.05,4.57-4.57,4.57h-11.96c-2.52,0-4.57-2.05-4.57-4.57v-21.09c0-2.52-2.05-4.57-4.57-4.57h-10.81c-2.52,0-4.57,2.05-4.57,4.57v21.09c0,2.52-2.05,4.57-4.57,4.57Zm4.57-55.83v5.52c0,2.52,2.05,4.57,4.57,4.57h10.81c2.52,0,4.57-2.05,4.57-4.57v-5.52c0-2.52-2.05-4.57-4.57-4.57h-10.81c-2.52,0-4.57,2.05-4.57,4.57Z"/>
  <path class="cls-1" d="M304.85,117.14h-13.98c-1.97,0-3.56-1.59-3.56-3.56V44.8c0-1.97,1.59-3.56,3.56-3.56h44.76c1.97,0,3.56,1.59,3.56,3.56v.42c0,1.97,1.59,3.56,3.56,3.56h3.14c1.97,0,3.56,1.59,3.56,3.56v23.47c0,1.97-1.59,3.56-3.56,3.56h-3.14c-1.97,0-3.56,1.59-3.56,3.56h0c0,1.97,1.59,3.56,3.56,3.56h3.14c1.97,0,3.56,1.59,3.56,3.56v23.53c0,1.97-1.59,3.56-3.56,3.56h-13.98c-1.97,0-3.56-1.59-3.56-3.56v-23.11c0-1.97-1.59-3.56-3.56-3.56h-12.83c-1.97,0-3.56,1.59-3.56,3.56v23.11c0,1.97-1.59,3.56-3.56,3.56Zm3.56-56.83v7.54c0,1.97,1.59,3.56,3.56,3.56h12.83c1.97,0,3.56-1.59,3.56-3.56v-7.54c0-1.97-1.59-3.56-3.56-3.56h-12.83c-1.97,0-3.56,1.59-3.56,3.56Z"/>
  <path class="cls-1" d="M402.87,117.14h-45.95c-1.64,0-2.97-1.33-2.97-2.97V44.2c0-1.64,1.33-2.97,2.97-2.97h45.95c1.64,0,2.97,1.33,2.97,2.97v9.57c0,1.64-1.33,2.97-2.97,2.97h-24.85c-1.64,0-2.97,1.33-2.97,2.97v8.73c0,1.64,1.33,2.97,2.97,2.97h24.85c1.64,0,2.97,1.33,2.97,2.97v9.57c0,1.64-1.33,2.97-2.97,2.97h-24.85c-1.64,0-2.97,1.33-2.97,2.97v8.73c0,1.64,1.33,2.97,2.97,2.97h24.85c1.64,0,2.97,1.33,2.97,2.97v9.63c0,1.64-1.33,2.97-2.97,2.97Z"/>
  <g>
    <path class="cls-1" d="M.27,20.64H399.98c3.23,0,5.86,2.62,5.86,5.86v10.51c0,.15-.12,.27-.27,.27H.27c-.15,0-.27-.12-.27-.27V20.91c0-.15,.12-.27,.27-.27Z"/>
    <path class="cls-1" d="M.27,0H32.88C36.11,0,38.73,2.62,38.73,5.86v10.51c0,.15-.12,.27-.27,.27H.27C.12,16.64,0,16.52,0,16.37V.27C0,.12,.12,0,.27,0Z"/>
    <path class="cls-1" d="M60.66,41.27H14.2s-14.03,0-14.03,0c-.12,24.4-.11,33.71-.07,37.23,.03,2.26,.1,4.75,0,8.51-.04,1.57-.1,2.85-.1,5.08,0,2.46,.06,4.31,.1,5.18,.07,1.66,.16,3.1,.25,4.26,.03,2.48,.58,6.66,3.8,11.23,.62,.87,2.96,4.08,7.83,7.44,1.71,1.19,5.96,3.93,23.91,9.8,3.33,1.09,6.25,2,8.58,2.7,1.55,.47,3.38,.17,4.41-.74,1.41-1.26,2.87-2.7,4.29-4.32,.85-.98,1.6-1.93,2.27-2.84,1.2-1.65,.13-3.62-2.38-4.37-2.63-.78-5-1.49-7.07-2.13-1.96-.6-6.47-1.99-10.99-3.79-1.13-.45-2.79-1.13-4.71-2.19-1.41-.78-2.49-1.5-3.23-2.03-.57-.43-1.29-1.03-2.03-1.78-.35-.35-.91-.92-1.44-1.66-.5-.7-1.13-1.77-1.47-3.19l-.4-1.73c-.19-.82-.29-1.66-.29-2.5-.03-13.14-.06-26.4-.09-39.58H60.3c1.16,0,2.09-.94,2.09-2.1v-14.75c0-.96-.78-1.74-1.73-1.74Z"/>
    <path class="cls-1" d="M51.83,88.97l-8.74,5.07c-.57,.33-1.27,.33-1.84,0l-8.74-5.07c-.56-.33-.91-.93-.91-1.58v-10.16c0-.65,.35-1.26,.91-1.58l8.74-5.07c.57-.33,1.27-.33,1.84,0l8.74,5.07c.56,.33,.91,.93,.91,1.58v10.16c0,.65-.35,1.26-.91,1.58Z"/>
    <path class="cls-1" d="M20.11,101.12c.64,0,.64-1,0-1s-.64,1,0,1h0Z"/>
    <path class="cls-1" d="M20.15,101.25c.64,0,.64-1,0-1s-.64,1,0,1h0Z"/>
    <path class="cls-1" d="M20.13,101.25c.64,0,.64-1,0-1s-.64,1,0,1h0Z"/>
    <path class="cls-1" d="M20.11,101.17c.64,0,.64-1,0-1s-.64,1,0,1h0Z"/>
    <path class="cls-1" d="M20.11,101.17c.64,0,.64-1,0-1s-.64,1,0,1h0Z"/>
    <path class="cls-1" d="M20.11,101.17c.64,0,.64-1,0-1s-.64,1,0,1h0Z"/>
  </g>
</svg>