<?xml version="1.0" encoding="UTF-8"?>
<svg id="Layer_1" data-name="Layer 1" xmlns="http://www.w3.org/2000/svg" viewBox="0 0 212.87 348.19">
  <defs>
    <style>
      .cls-1 {
        fill: #020617;
      }
    </style>
  </defs>
  <path class="cls-1" d="M.27,54.05H207.02c3.23,0,5.86,2.62,5.86,5.86v37.45c0,.15-.12,.27-.27,.27H.27C.12,97.63,0,97.51,0,97.36V54.32C0,54.17,.12,54.05,.27,54.05Z"/>
  <path class="cls-1" d="M.27,0H95.6C98.83,0,101.45,2.62,101.45,5.86V43.31c0,.15-.12,.27-.27,.27H.27C.12,43.58,0,43.46,0,43.31V.27C0,.12,.12,0,.27,0Z"/>
  <path class="cls-1" d="M158.87,108.1H37.2s-36.75,0-36.75,0c-.31,63.91-.28,88.29-.17,97.5,.07,5.92,.26,12.44,0,22.28-.11,4.11-.26,7.47-.26,13.32,0,6.43,.17,11.29,.26,13.58,.18,4.35,.42,8.12,.66,11.16,.09,6.5,1.53,17.46,9.97,29.41,1.61,2.29,7.76,10.68,20.5,19.5,4.48,3.11,15.6,10.3,62.63,25.68,8.72,2.85,16.38,5.24,22.47,7.08,4.07,1.24,8.86,.45,11.54-1.94,3.7-3.3,7.52-7.07,11.23-11.33,2.22-2.55,4.19-5.04,5.94-7.44,3.15-4.31,.35-9.49-6.24-11.44-6.88-2.03-13.08-3.91-18.52-5.58-5.12-1.57-16.94-5.22-28.77-9.93-2.97-1.18-7.3-2.97-12.33-5.75-3.69-2.04-6.52-3.93-8.46-5.31-1.48-1.13-3.37-2.69-5.31-4.66-.91-.92-2.38-2.42-3.76-4.34-1.31-1.82-2.97-4.63-3.85-8.36l-1.06-4.54c-.5-2.15-.75-4.34-.76-6.54-.07-34.41-.17-69.15-.24-103.66h102.02c3.03,0,5.48-2.47,5.48-5.51v-38.63c0-2.52-2.03-4.56-4.54-4.56Z"/>
  <path class="cls-1" d="M132.3,235.04l-15.97,9.26c-3.64,2.11-8.13,2.11-11.77,0l-15.97-9.26c-3.62-2.1-5.84-5.96-5.84-10.14v-18.62c0-4.18,2.23-8.05,5.84-10.14l15.97-9.26c3.64-2.11,8.13-2.11,11.77,0l15.97,9.26c3.62,2.1,5.84,5.96,5.84,10.14v18.62c0,4.18-2.23,8.05-5.84,10.14Z"/>
</svg>